<svg width="44" height="13" viewBox="0 0 44 13" fill="none" xmlns="http://www.w3.org/2000/svg">
<g clip-path="url(#clip0_1_137)">
<path d="M40.5988 5.78421C41.3502 5.78421 41.9737 5.79372 42.5971 5.77988C42.8989 5.77383 43.1583 5.9018 43.1531 6.17072C43.1462 6.5114 42.7994 6.35835 42.6109 6.36008C40.7087 6.37391 38.8012 6.38948 36.8981 6.36008C36.3412 6.35057 36.157 6.50102 36.189 7.0596C36.2366 7.87239 36.2003 8.6895 36.2029 9.50488C36.2029 9.76861 36.2227 10.0237 35.8241 9.99774C35.4722 9.97699 35.518 9.73834 35.5172 9.51785C35.5172 8.64627 35.4999 7.77381 35.5241 6.90309C35.5345 6.50707 35.4117 6.35921 34.9966 6.36613C33.3209 6.39553 31.6449 6.40763 29.9686 6.40245C29.6011 6.40245 29.4403 6.52869 29.48 6.89099C29.4818 6.91978 29.4818 6.94866 29.48 6.97745C29.3538 9.42101 29.3538 9.42101 31.8371 9.42101C32.4061 9.42101 32.9748 9.42101 33.5431 9.42101C33.7541 9.42101 33.9504 9.44868 33.9495 9.72797C33.9495 10.0332 33.7143 9.99515 33.5258 9.99602C32.1043 9.99602 30.6828 9.99083 29.2621 10.0047C28.9258 10.0047 28.8108 9.87928 28.8125 9.56454C28.8229 7.3164 28.8275 5.06826 28.8264 2.82012C28.8264 2.47944 28.9664 2.39297 29.2855 2.39557C30.6499 2.40767 32.0144 2.39557 33.3788 2.40075C33.5769 2.40075 33.793 2.38173 33.8112 2.66967C33.8337 2.99824 33.6149 3.02332 33.3685 3.02332C32.2885 3.02332 31.2068 3.05012 30.1285 3.01121C29.5899 2.99132 29.4714 3.18414 29.4653 3.68479C29.4411 5.77988 29.4247 5.77988 31.5751 5.77988C32.7122 5.77988 33.8492 5.76605 34.9863 5.78767C35.3866 5.79545 35.5388 5.68131 35.5241 5.26886C35.4956 4.48288 35.5241 3.6943 35.512 2.90745C35.5059 2.57282 35.5768 2.38087 35.9746 2.38865C36.969 2.41026 37.9694 2.33936 38.9577 2.42237C40.5954 2.56158 41.3329 3.75396 40.8064 5.28529C40.7623 5.41586 40.7017 5.53864 40.5988 5.78421ZM37.9253 5.77988C38.2374 5.77988 38.5496 5.77988 38.8617 5.77988C39.8397 5.77988 40.2158 5.47033 40.2789 4.62555C40.3438 3.75483 39.8751 3.15561 38.9949 3.06223C38.4328 3.00429 37.8561 3.08211 37.2967 3.01294C36.432 2.90659 36.1354 3.18155 36.1795 4.086C36.2608 5.77383 36.2029 5.77988 37.9253 5.77988Z" fill="white"/>
<path d="M10.4037 0.709152C9.56847 2.92357 8.81621 4.91923 8.06395 6.91489C7.99391 7.09906 7.9377 7.28843 7.8521 7.46568C7.74056 7.69742 7.50623 7.65764 7.3333 7.60836C7.0739 7.53486 7.22867 7.34895 7.28315 7.20369C8.1556 4.92269 9.0367 2.64428 9.89186 0.357232C10.0095 0.0442219 10.1919 0.00531134 10.4677 0.000123318C10.8568 -0.00679404 10.9001 0.278547 11.0038 0.542272C12.2299 3.73809 13.4586 6.93362 14.6899 10.1289C14.8914 10.6529 15.0903 11.1786 15.2813 11.706C15.3401 11.8677 15.5529 12.0804 15.2355 12.1816C15.0072 12.2542 14.7937 12.1902 14.6925 11.917C14.4201 11.1803 14.1322 10.4471 13.8529 9.71383C13.507 8.79555 13.1378 7.88246 12.8153 6.9538C12.6649 6.51541 12.4435 6.31913 11.9558 6.35891C11.4682 6.39868 10.9917 6.34075 10.5092 6.34334C10.2619 6.34334 10.1227 6.21278 10.0959 6.00699C10.0492 5.64728 10.3553 5.82195 10.5084 5.78304C10.5945 5.77272 10.6816 5.77272 10.7678 5.78304C12.3553 5.77007 12.3562 5.77007 11.776 4.25862C11.3428 3.13801 10.9104 2.02259 10.4037 0.709152Z" fill="white"/>
<path d="M17.5898 10.2066C16.0057 10.198 15.0104 9.48893 14.841 8.24294C14.8133 8.03888 14.6577 7.7717 15.0295 7.71722C15.3105 7.67658 15.4523 7.75354 15.5405 8.09508C15.9106 9.53303 17.812 10.1366 19.0199 9.23472C19.927 8.55768 19.7791 7.22263 18.7 6.78597C17.9425 6.47902 17.1237 6.3277 16.3455 6.0657C15.5673 5.80371 15.0286 5.32209 14.9949 4.42283C14.956 3.36707 15.4506 2.65717 16.4838 2.34762C18.0679 1.87984 19.5681 2.49289 19.9296 3.78211C19.9901 3.99568 20.2486 4.34674 19.786 4.46433C19.4047 4.56118 19.3615 4.30264 19.2733 3.99655C18.9957 3.04541 18.0792 2.64161 16.8453 2.8768C16.0195 3.03503 15.6555 3.5253 15.6849 4.36922C15.7065 4.97449 16.0662 5.28577 16.5885 5.45006C17.1557 5.62732 17.7411 5.75096 18.31 5.92476C19.8215 6.38563 20.419 7.14741 20.246 8.36227C20.0809 9.52957 19.0917 10.2144 17.5898 10.2066Z" fill="white"/>
<path d="M0.716298 6.02356C0.710245 6.99199 0.813141 7.73474 1.21175 8.41178C1.78071 9.37762 2.67305 9.70879 3.74091 9.59292C4.73528 9.48657 5.42789 8.9669 5.66135 7.96475C5.72533 7.69151 5.78845 7.44594 6.13432 7.52463C6.54936 7.61715 6.34098 7.94313 6.28996 8.13768C6.015 9.1701 5.35352 9.88604 4.29344 10.1083C3.0829 10.3625 1.91214 10.2492 1.01374 9.24359C-0.290178 7.78403 -0.351569 4.7525 0.918631 3.27737C1.7833 2.27954 2.91688 2.05559 4.1646 2.2951C5.18491 2.49138 5.9268 3.04218 6.21819 4.07373C6.26402 4.23629 6.46895 4.4637 6.16891 4.56486C5.97176 4.63058 5.77462 4.64528 5.61638 4.35994C4.85115 2.97646 4.17411 2.64011 2.77162 2.88049C1.69251 3.06553 0.955812 3.94835 0.76299 5.30156C0.720621 5.60506 0.723215 5.91721 0.716298 6.02356Z" fill="white"/>
<path d="M21.9655 6.19282C21.9655 5.09988 21.9802 4.00694 21.9577 2.91486C21.9499 2.51365 22.0779 2.37184 22.4895 2.38568C23.3109 2.41335 24.1324 2.35887 24.9547 2.40643C26.352 2.48598 27.0809 3.23046 27.0965 4.51536C27.112 5.74752 26.4203 6.49459 25.0619 6.64159C24.4135 6.70228 23.7621 6.72365 23.1112 6.70557C22.7083 6.70125 22.569 6.82403 22.5924 7.23648C22.6313 7.936 22.6227 8.63897 22.6019 9.33936C22.595 9.57887 22.7636 9.96884 22.301 9.98354C21.7761 9.99996 21.9448 9.56849 21.9404 9.30477C21.9205 8.26716 21.9327 7.22956 21.9327 6.19196L21.9655 6.19282ZM22.6114 4.5266C22.6114 4.92089 22.6166 5.31432 22.6114 5.70861C22.6071 5.93169 22.6503 6.10549 22.9236 6.09511C23.7433 6.06399 24.5751 6.20925 25.3801 5.96714C26.1505 5.73541 26.5206 5.16819 26.4376 4.35799C26.3589 3.57979 25.9188 3.13189 25.125 3.06099C24.7869 3.02986 24.4445 3.02208 24.1047 3.02121C22.6131 3.01257 22.6131 3.01775 22.6114 4.5266Z" fill="white"/>
<path d="M39.6641 6.82699C40.3601 6.5892 40.5711 6.93248 40.6299 7.44263C40.7094 8.13437 40.7734 8.8261 40.8296 9.51784C40.8426 9.67953 41.1677 9.93807 40.706 9.99341C40.3921 10.0315 40.2183 9.90002 40.1872 9.60085C40.1405 9.159 40.1267 8.7137 40.0756 8.27185C40.0194 7.77639 39.9537 7.27748 39.6641 6.82699Z" fill="white"/>
</g>
<defs>
<clipPath id="clip0_1_137">
<rect width="43.154" height="12.21" fill="white"/>
</clipPath>
</defs>
</svg>
