<svg width="50" height="11" viewBox="0 0 50 11" fill="none" xmlns="http://www.w3.org/2000/svg">
<path d="M23.616 3.99256C23.3149 4.0306 23.0113 4.04548 22.708 4.03706H20.95L21.35 3.27764C21.3766 3.22525 21.4186 3.18208 21.4706 3.15383C21.5226 3.12558 21.582 3.11358 21.641 3.11942C22.063 3.11942 22.484 3.11942 22.906 3.11942C23.0449 3.11884 23.1834 3.10326 23.319 3.07295C23.4822 3.04445 23.6326 2.96687 23.7496 2.85079C23.8666 2.73471 23.9446 2.58578 23.973 2.42428C24.026 2.18318 24.026 1.93364 23.973 1.69254C23.9437 1.5053 23.8522 1.33303 23.713 1.20287C23.5737 1.07271 23.3947 0.992072 23.204 0.973661C23.0832 0.954666 22.9612 0.945077 22.839 0.944984C22.2316 0.944984 21.6246 0.944984 21.018 0.944984C20.783 0.944984 20.703 1.02607 20.703 1.26141C20.703 2.14444 20.703 3.02746 20.703 3.91049C20.703 4.00937 20.679 4.04398 20.572 4.042C20.239 4.03409 19.906 4.03607 19.572 4.042C19.489 4.042 19.455 4.02915 19.455 3.9362C19.455 2.67313 19.455 1.41105 19.455 0.149965C19.455 0.0708582 19.472 0.044159 19.555 0.044159C20.755 0.044159 21.95 0.044159 23.147 0.044159C23.4506 0.0415165 23.7525 0.089659 24.04 0.186551C24.719 0.422882 25.097 0.910375 25.22 1.59564C25.3029 2.01066 25.2708 2.44016 25.127 2.8386C24.873 3.5377 24.338 3.88379 23.616 3.99256ZM30.539 0.00757274C30.22 0.00757274 29.904 0.00757274 29.588 0.00757274C29.5093 0.00246604 29.4312 0.0240926 29.3666 0.0688707C29.3021 0.113649 29.2549 0.178892 29.233 0.253792C29.169 0.438704 29.098 0.620648 29.033 0.80457L28.364 2.64874C28.346 2.60424 28.332 2.57557 28.321 2.54491C28.021 1.73605 27.714 0.926197 27.415 0.115355C27.4081 0.079534 27.3876 0.047709 27.3576 0.0265207C27.3276 0.00533246 27.2904 -0.00358121 27.254 0.00163999C26.938 0.00856181 26.621 0.00658415 26.305 0.00163999C26.2727 -0.00359147 26.2396 0.0038023 26.2127 0.0222567C26.1858 0.0407112 26.1673 0.0687789 26.161 0.100523C25.867 0.928504 25.5703 1.75484 25.271 2.57952C25.2346 2.67805 25.2374 2.78657 25.279 2.88309C25.406 3.20347 25.527 3.52682 25.66 3.84622C25.686 3.90851 25.66 4.01827 25.782 4.02025C25.904 4.02223 25.962 3.94807 26 3.84622C26.013 3.81161 26.029 3.77799 26.04 3.74733C26.207 3.2282 26.391 2.71499 26.579 2.20377L26.8 1.60454C26.823 1.652 26.834 1.67276 26.843 1.69452C27.109 2.39857 27.377 3.10261 27.643 3.80666C27.6554 3.85892 27.6868 3.90484 27.7312 3.93567C27.7757 3.96649 27.83 3.98005 27.884 3.97377C28.184 3.96389 28.492 3.97377 28.795 3.97377C28.8456 3.97747 28.8964 3.97057 28.9441 3.95353C28.9919 3.9365 29.0354 3.9097 29.072 3.87489C29.137 3.7927 29.1849 3.6986 29.213 3.59802C29.437 2.99813 29.661 2.39758 29.885 1.79637C30.0983 1.22812 30.3123 0.659872 30.527 0.091624C30.533 0.0589926 30.557 0.0332823 30.539 0.00757274ZM25.173 3.03537C25.123 3.06603 25.116 3.10954 25.097 3.14316C24.9506 3.41708 24.7305 3.64568 24.461 3.8037C24.343 3.87192 24.343 3.91247 24.461 3.97971C24.4965 4.00215 24.537 4.01573 24.579 4.01926C24.879 4.02519 25.185 4.02717 25.488 4.02915C25.523 4.02915 25.545 4.02915 25.528 3.97971L25.173 3.03537ZM23.853 1.63321C23.8177 1.49229 23.7365 1.36677 23.6219 1.27599C23.5073 1.18521 23.3657 1.13422 23.219 1.13089C23.404 1.6075 23.589 2.08115 23.783 2.57952C23.9234 2.2834 23.9484 1.9464 23.853 1.63321Z" fill="#121212"/>
<path d="M0 7.18466C0.053 7.22916 0.105 7.18466 0.158 7.18466C1.106 7.18961 2.058 7.18466 3.003 7.18466C3.21812 7.18437 3.43245 7.21061 3.641 7.26278C3.94511 7.33263 4.21814 7.49806 4.41916 7.73427C4.62018 7.97048 4.73837 8.26476 4.756 8.57298C4.78082 8.80419 4.76833 9.03783 4.719 9.26516C4.562 9.9079 4.145 10.2649 3.5 10.3835C3.32191 10.4163 3.14115 10.4328 2.96 10.433H1.26C1.383 10.2026 1.482 9.97514 1.62 9.76749C1.64519 9.73642 1.67829 9.71253 1.71589 9.69828C1.7535 9.68404 1.79426 9.67994 1.834 9.68641H2.782C2.89146 9.6869 3.00079 9.67897 3.109 9.66267C3.26535 9.64983 3.41231 9.58361 3.5247 9.47536C3.63709 9.36712 3.7079 9.22359 3.725 9.06937C3.75749 8.89284 3.75749 8.71195 3.725 8.53541C3.661 8.19327 3.416 7.98067 3.043 7.94211C2.8328 7.92515 2.62182 7.91954 2.411 7.9253C2.057 7.9253 1.703 7.9253 1.349 7.9253C1.134 7.9253 1.068 7.98957 1.068 8.19921C1.068 8.89831 1.068 9.5984 1.068 10.2975C1.068 10.4231 1.032 10.4478 0.915 10.4439C0.671 10.434 0.426 10.4439 0.181 10.4439C0.107 10.4439 0.039 10.4508 0.044 10.345C0.044 10.3173 0.016 10.3272 0.002 10.345L0 7.18466Z" fill="white"/>
<path d="M50.0005 9.55989C49.9555 9.59054 49.9695 9.64295 49.9585 9.68448C49.9115 9.89223 49.7955 10.0784 49.6289 10.2132C49.4623 10.348 49.2547 10.4237 49.0395 10.4281C47.9475 10.439 46.8555 10.4281 45.7665 10.4281C45.7455 10.4063 45.7585 10.3885 45.7665 10.3707C45.8615 10.1937 45.9585 10.0187 46.0485 9.84071C46.0715 9.7893 46.1102 9.74629 46.1591 9.71773C46.2081 9.68918 46.2649 9.67651 46.3215 9.68151C47.1275 9.68151 47.9325 9.68151 48.7375 9.68151C48.9145 9.68151 49.0215 9.6024 49.0375 9.46298C49.0462 9.42291 49.0451 9.38137 49.0343 9.3418C49.0236 9.30223 49.0034 9.26577 48.9756 9.23543C48.9477 9.20509 48.9129 9.18174 48.8742 9.16731C48.8354 9.15289 48.7937 9.14781 48.7525 9.15248C48.1325 9.15248 47.5128 9.15248 46.8935 9.15248C46.7798 9.15266 46.6662 9.14539 46.5535 9.13073C46.1065 9.07041 45.7535 8.78266 45.6685 8.40196C45.5355 7.82152 45.8895 7.31425 46.4985 7.20745C46.5939 7.19068 46.6906 7.18175 46.7875 7.18076C47.6602 7.18076 48.5328 7.18076 49.4055 7.18076C49.4305 7.18076 49.4555 7.18076 49.5055 7.18076C49.3825 7.40423 49.2875 7.62968 49.1515 7.83338C49.0955 7.91743 49.0065 7.90853 48.9235 7.90853H46.9615C46.9245 7.90853 46.8855 7.90853 46.8485 7.90853C46.8136 7.90798 46.7789 7.91444 46.7466 7.92751C46.7143 7.94059 46.685 7.96001 46.6606 7.9846C46.6361 8.00919 46.6169 8.03843 46.6041 8.07057C46.5914 8.10271 46.5854 8.13707 46.5865 8.17156C46.5876 8.20502 46.5956 8.2379 46.61 8.26819C46.6244 8.29847 46.6449 8.32551 46.6703 8.34765C46.6957 8.36979 46.7254 8.38656 46.7576 8.39692C46.7898 8.40728 46.8238 8.41102 46.8575 8.40789H48.8805C49.5055 8.40789 49.8455 8.67982 49.9805 9.28598C49.9805 9.29191 49.9925 9.29587 49.9985 9.30081L50.0005 9.55989Z" fill="#0298D9"/>
<path d="M34.0058 10.5636C34.0053 10.5706 34.0053 10.5776 34.0058 10.5846H33.5508C33.5513 10.5776 33.5513 10.5706 33.5508 10.5636H34.0058Z" fill="#D3D2D2"/>
<path d="M26.8877 9.67269C27.0987 9.0873 27.3027 8.51971 27.5077 7.95311C27.5897 7.72568 27.6747 7.49924 27.7527 7.27082C27.7578 7.2428 27.774 7.21792 27.7976 7.20161C27.8212 7.18531 27.8503 7.1789 27.8787 7.1838C28.1267 7.1838 28.3787 7.19072 28.6247 7.1838C28.6636 7.1759 28.704 7.18353 28.7372 7.20502C28.7703 7.22652 28.7935 7.26013 28.8017 7.2985C29.0707 8.03321 29.3457 8.76593 29.6187 9.49964C29.6367 9.54612 29.6557 9.5916 29.6747 9.64006C29.7277 9.62028 29.7247 9.57282 29.7377 9.54117C30.0084 8.79362 30.2777 8.0454 30.5457 7.29652C30.5523 7.26103 30.5728 7.22955 30.6028 7.20898C30.6328 7.18841 30.6698 7.18042 30.7057 7.18676C30.9547 7.19369 31.2057 7.18676 31.4527 7.18676C31.5237 7.18676 31.5527 7.19467 31.5207 7.27576C31.1607 8.26459 30.8057 9.24749 30.4467 10.2334C30.3817 10.4094 30.3357 10.4311 30.1467 10.4361C29.8137 10.4361 29.4807 10.4361 29.1467 10.4361C29.1126 10.4416 29.0776 10.4339 29.0491 10.4146C29.0206 10.3952 29.0007 10.3657 28.9937 10.3322C28.7817 9.76663 28.5637 9.20398 28.3477 8.64035C28.3317 8.59783 28.3147 8.55728 28.2877 8.49004C28.1337 8.91326 27.9877 9.31077 27.8427 9.7073C27.7757 9.89122 27.7047 10.0732 27.6427 10.2581C27.6284 10.3129 27.5948 10.3609 27.5478 10.3934C27.5009 10.4259 27.4437 10.4406 27.3867 10.4351C27.0327 10.4351 26.6787 10.4351 26.3247 10.4351C26.2677 10.4351 26.2337 10.4242 26.2117 10.3649C25.8117 9.31011 25.4117 8.25899 25.0117 7.21149C25.0117 7.21149 25.0117 7.20357 25.0177 7.18577C25.3117 7.18577 25.6087 7.18577 25.9057 7.18577C25.9797 7.18577 25.9777 7.24412 25.9937 7.28466C26.2731 8.02892 26.5514 8.77351 26.8287 9.51843C26.8417 9.56589 26.8617 9.61237 26.8877 9.67269Z" fill="#0298D9"/>
<path d="M22.1793 9.47275C22.3303 9.07721 22.4793 8.6886 22.6223 8.30494C22.7423 7.99444 22.8683 7.68593 22.9853 7.37444C23.0015 7.31408 23.0391 7.26148 23.0912 7.22626C23.1434 7.19104 23.2066 7.17555 23.2693 7.18261C23.6743 7.18953 24.0793 7.18756 24.4833 7.18261C24.5673 7.18261 24.5893 7.20536 24.5893 7.28644C24.5893 8.30296 24.5893 9.31915 24.5893 10.335C24.5893 10.4102 24.5703 10.4339 24.4893 10.4339C24.2243 10.4289 23.9583 10.427 23.6893 10.4339C23.5893 10.4339 23.5733 10.4013 23.5743 10.3133C23.5743 9.58448 23.5743 8.85572 23.5743 8.12695V7.99345C23.5354 8.02862 23.5103 8.07624 23.5033 8.12793C23.2383 8.85967 22.9733 9.5914 22.7153 10.3251C22.7076 10.3607 22.6862 10.3919 22.6555 10.412C22.6249 10.4321 22.5875 10.4396 22.5513 10.4329C22.3113 10.428 22.0703 10.427 21.8303 10.4329C21.7944 10.4393 21.7574 10.4315 21.7273 10.4111C21.6972 10.3908 21.6764 10.3595 21.6693 10.3241C21.4033 9.5924 21.1313 8.86066 20.8533 8.12892C20.8428 8.07771 20.8175 8.03064 20.7803 7.99345V8.12299C20.7803 8.8389 20.7803 9.55581 20.7803 10.2717C20.7803 10.4616 20.8053 10.4319 20.6113 10.4339C20.3663 10.4339 20.1223 10.4339 19.8773 10.4339C19.8033 10.4339 19.7773 10.4181 19.7773 10.335C19.7773 9.36101 19.7773 8.38602 19.7773 7.41202C19.7773 7.24491 19.8473 7.18063 20.0193 7.18063C20.3983 7.18063 20.7773 7.18063 21.1573 7.18063C21.1955 7.17469 21.2345 7.18334 21.2665 7.20483C21.2984 7.22632 21.3209 7.25904 21.3293 7.29633C21.5943 7.98356 21.8633 8.66981 22.1293 9.35507C22.1453 9.39166 22.1603 9.42528 22.1793 9.47275Z" fill="white"/>
<path d="M39.7706 9.43436L40.9356 10.4123C40.8956 10.4489 40.8566 10.4331 40.8216 10.4331C40.4846 10.4331 40.1476 10.4331 39.8106 10.4331C39.7396 10.4355 39.6706 10.4098 39.6186 10.3619C39.3186 10.1028 39.0186 9.84868 38.7236 9.5896C38.6949 9.56279 38.6609 9.5421 38.6237 9.52883C38.5866 9.51556 38.5471 9.50999 38.5076 9.51248C38.2336 9.51742 37.9596 9.51248 37.6856 9.51248C37.6086 9.51248 37.5856 9.49764 37.6276 9.42249C37.7156 9.2623 37.7996 9.09914 37.8826 8.935C37.9057 8.88129 37.9455 8.83625 37.9962 8.80639C38.0469 8.77652 38.1059 8.76338 38.1646 8.76887C38.4646 8.77382 38.7716 8.77382 39.0756 8.76887C39.1645 8.77126 39.2517 8.74481 39.3239 8.69356C39.3962 8.64231 39.4494 8.56909 39.4756 8.48508C39.5051 8.40216 39.5083 8.31236 39.4849 8.22758C39.4615 8.1428 39.4126 8.06707 39.3446 8.01044C39.258 7.94139 39.1488 7.9062 39.0376 7.91155H37.5376C37.3526 7.91155 37.2796 7.98671 37.2796 8.17261C37.2796 8.88061 37.2796 9.58862 37.2796 10.2956C37.2796 10.3945 37.2566 10.4311 37.1496 10.4281C36.8876 10.4192 36.6266 10.4281 36.3656 10.4281C36.2956 10.4281 36.2656 10.4113 36.2656 10.3382C36.2656 9.31372 36.2656 8.28962 36.2656 7.26584C36.2656 7.1897 36.2956 7.17685 36.3656 7.17685C37.3656 7.17685 38.3716 7.17685 39.3746 7.1818C39.6297 7.19336 39.874 7.28662 40.0708 7.44752C40.2676 7.60842 40.4061 7.82823 40.4655 8.07379C40.5248 8.31935 40.5019 8.57735 40.4 8.80886C40.2981 9.04037 40.1228 9.23284 39.9006 9.35723L39.7706 9.43436Z" fill="#0298D9"/>
<path d="M9.90683 10.433C9.51583 10.433 9.12484 10.433 8.73383 10.433C8.67483 10.433 8.64383 10.3924 8.60683 10.3618C8.30683 10.1057 8.00683 9.84954 7.70683 9.58948C7.68032 9.56424 7.64896 9.54451 7.61461 9.53143C7.58027 9.51836 7.54362 9.5122 7.50683 9.51334C7.20683 9.51334 6.89983 9.51334 6.56983 9.51334C6.70183 9.27503 6.79383 9.03672 6.94783 8.83006C6.99083 8.77171 7.05883 8.77567 7.12183 8.77468C7.42983 8.77468 7.73683 8.77468 8.04483 8.77468C8.10953 8.77833 8.1742 8.76719 8.23385 8.74213C8.29349 8.71708 8.34649 8.67877 8.38875 8.6302C8.43101 8.58162 8.46139 8.52408 8.47753 8.46202C8.49367 8.39996 8.49515 8.33506 8.48183 8.27235C8.47053 8.18893 8.43311 8.11109 8.37483 8.04973C8.31656 7.98838 8.24033 7.94659 8.15683 7.93022C8.10711 7.92039 8.05654 7.91542 8.00583 7.91538H6.53783C6.33783 7.91538 6.26883 7.98262 6.26883 8.1883C6.26883 8.89235 6.26883 9.5964 6.26883 10.3005C6.26883 10.3993 6.24683 10.4369 6.13883 10.4339C5.88183 10.425 5.62383 10.4339 5.36683 10.4339C5.28983 10.4339 5.25683 10.4221 5.25783 10.3351C5.25783 9.31854 5.25783 8.30202 5.25783 7.2855C5.25783 7.20244 5.28283 7.18661 5.36383 7.18661C6.34583 7.18661 7.32883 7.18661 8.31183 7.18661C8.57314 7.18835 8.82655 7.27536 9.03269 7.43415C9.23884 7.59293 9.38618 7.81459 9.45184 8.0647C9.51636 8.31517 9.49421 8.5798 9.3889 8.81637C9.2836 9.05295 9.10121 9.24784 8.87083 9.36996C8.77083 9.42336 8.76283 9.44709 8.85383 9.52125C9.21083 9.81296 9.56183 10.1145 9.91483 10.4112L9.90683 10.433Z" fill="white"/>
<path d="M34.0053 10.5636H33.5523C33.2996 10.55 33.0503 10.5 32.8123 10.4153C32.1973 10.1829 31.8843 9.72307 31.8053 9.09615C31.7651 8.80645 31.7852 8.5117 31.8643 8.22993C31.9326 7.96212 32.0748 7.71833 32.275 7.52575C32.4752 7.33317 32.7256 7.19936 32.9983 7.13925C33.4864 7.01639 33.9971 7.00995 34.4883 7.12046C35.2533 7.28955 35.7293 7.85912 35.7713 8.63536C35.7922 8.90602 35.7644 9.1782 35.6893 9.43928C35.4983 10.0593 35.0423 10.3777 34.4263 10.5102C34.2876 10.5391 34.1468 10.557 34.0053 10.5636ZM32.7183 8.80346C32.7183 8.85685 32.7183 8.91124 32.7183 8.96464C32.7473 9.45312 33.0013 9.74681 33.4703 9.82591C33.6868 9.863 33.9084 9.86099 34.1243 9.81998C34.5343 9.74087 34.7693 9.50652 34.8343 9.10011C34.8734 8.87796 34.8669 8.6503 34.8153 8.43067C34.786 8.27149 34.7081 8.12501 34.5921 8.01096C34.476 7.89692 34.3274 7.8208 34.1663 7.79287C33.9802 7.75764 33.79 7.74799 33.6013 7.7642C33.2283 7.79089 32.9363 7.93724 32.7943 8.30113C32.7337 8.46148 32.7078 8.6326 32.7183 8.80346Z" fill="#0298D9"/>
<path d="M19.3584 10.4329C19.0014 10.4329 18.6584 10.4329 18.3114 10.4329C18.2903 10.4344 18.2693 10.4293 18.2513 10.4183C18.2333 10.4073 18.2194 10.3909 18.2114 10.3716C18.1644 10.2786 18.1114 10.1896 18.0664 10.0947C18.0427 10.0303 17.9977 9.97573 17.9387 9.93983C17.8797 9.90392 17.8102 9.88881 17.7414 9.89694C17.2864 9.90584 16.8304 9.89694 16.3754 9.90188C16.2754 9.90188 16.2454 9.88804 16.3024 9.78916C16.3914 9.63391 16.4694 9.47273 16.5524 9.31353C16.5748 9.26174 16.6134 9.21838 16.6625 9.18975C16.7116 9.16112 16.7687 9.14871 16.8254 9.15433C17.0314 9.16323 17.2384 9.15433 17.4454 9.15433C17.5254 9.15433 17.5544 9.14444 17.5084 9.06039C17.3084 8.69452 17.1084 8.32668 16.9154 7.95784C16.8574 7.97169 16.8544 8.02508 16.8344 8.06167C16.4344 8.81714 16.038 9.57524 15.6454 10.336C15.6333 10.3681 15.6107 10.3953 15.5811 10.4132C15.5516 10.4312 15.5168 10.4388 15.4824 10.4349C15.1504 10.4299 14.8174 10.4349 14.4824 10.4349C14.4734 10.3923 14.4984 10.3666 14.5134 10.336C15.0284 9.39165 15.5504 8.45028 16.0554 7.50101C16.1794 7.26764 16.3214 7.14997 16.6034 7.17667C16.8894 7.19365 17.1762 7.1953 17.4624 7.18161C17.4888 7.17794 17.5157 7.18267 17.5393 7.19511C17.5628 7.20755 17.5818 7.22706 17.5934 7.25083C18.1714 8.29438 18.7507 9.33693 19.3314 10.3785C19.3434 10.3894 19.3464 10.4022 19.3584 10.4329Z" fill="white"/>
<path d="M42.3762 8.62838C42.8762 8.15572 43.3492 7.71075 43.8182 7.26182C43.8439 7.23539 43.8751 7.21474 43.9096 7.20126C43.9441 7.18778 43.9811 7.1818 44.0182 7.1837C44.3952 7.1837 44.7732 7.1837 45.1832 7.1837L44.9892 7.35872C44.4892 7.80271 43.9962 8.24867 43.4962 8.6887C43.4232 8.75297 43.4242 8.77967 43.4962 8.84197C44.0962 9.34232 44.6962 9.84761 45.2962 10.3509C45.3202 10.3717 45.3562 10.3826 45.3622 10.432H44.1002C44.0422 10.432 44.0112 10.3865 43.9742 10.3549C43.4735 9.92903 42.9735 9.50053 42.4742 9.0694L42.4002 9.01897C42.3582 9.05457 42.3782 9.09907 42.3782 9.13664C42.3782 9.53217 42.3782 9.92771 42.3782 10.3232C42.3782 10.4083 42.3582 10.4379 42.2672 10.436C42.0022 10.43 41.7362 10.43 41.4672 10.436C41.3802 10.436 41.3672 10.4073 41.3672 10.3292C41.3672 9.31397 41.3672 8.29811 41.3672 7.28159C41.3672 7.20545 41.3862 7.18271 41.4672 7.18271C41.7339 7.18732 42.0035 7.18732 42.2762 7.18271C42.3642 7.18271 42.3762 7.21336 42.3762 7.29049C42.3762 7.68602 42.3762 8.08156 42.3762 8.47709V8.62838Z" fill="#0298D9"/>
<path d="M14.2835 7.18481C14.1665 7.40037 14.0605 7.59814 13.9535 7.79492C13.9293 7.8365 13.8929 7.86988 13.8492 7.89069C13.8055 7.91151 13.7564 7.9188 13.7085 7.9116C13.0215 7.9116 12.3345 7.9116 11.6475 7.9116C11.4265 7.9116 11.3625 7.97489 11.3625 8.19441C11.3625 8.46139 11.3625 8.46139 11.6265 8.46139H13.7015C13.5865 8.67201 13.4815 8.86484 13.3745 9.05469C13.3225 9.14863 13.2295 9.15357 13.1335 9.15357C12.6315 9.15357 12.1315 9.15357 11.6335 9.15357C11.4335 9.15357 11.3645 9.21785 11.3645 9.42353C11.3645 9.72018 11.3645 10.0237 11.3645 10.3234C11.3645 10.3985 11.3535 10.4331 11.2645 10.4311C10.9955 10.4252 10.7255 10.4311 10.4555 10.4311C10.3815 10.4311 10.3555 10.4163 10.3555 10.3323C10.3555 9.31179 10.3555 8.29164 10.3555 7.27183C10.3555 7.20755 10.3645 7.17294 10.4425 7.17294C11.7125 7.18481 12.9855 7.18481 14.2835 7.18481Z" fill="white"/>
<path d="M14.2998 9.70034C14.1938 9.90404 14.0998 10.088 13.9998 10.2729C13.9769 10.3245 13.9383 10.3678 13.8894 10.3968C13.8405 10.4259 13.7837 10.4392 13.7268 10.435C13.0408 10.435 12.3545 10.435 11.6678 10.435C11.5808 10.435 11.5678 10.4172 11.6068 10.3362C11.6988 10.1681 11.7848 9.996 11.8738 9.82691C11.8876 9.78931 11.9125 9.75672 11.9454 9.73341C11.9782 9.71011 12.0174 9.6972 12.0578 9.69638L14.2998 9.70034Z" fill="white"/>
</svg>
