<svg width="40" height="29" viewBox="0 0 40 29" fill="none" xmlns="http://www.w3.org/2000/svg">
<g clip-path="url(#clip0_1_124)">
<path d="M21.3633 0.10057C24.8103 0.551597 27.708 3.20595 28.5914 6.59753C28.8597 7.62701 28.9568 8.68324 28.83 9.72839C28.5954 11.6649 27.8728 13.3936 26.4869 14.8286C25.5199 15.8299 24.4317 16.6133 23.1296 17.1113C21.7746 17.6296 20.3583 17.8007 18.9477 17.611C14.498 17.0142 11.5805 13.5213 11.2197 9.70479C11.1952 9.44742 11.2176 9.33294 11.5086 9.33691C12.2339 9.34714 12.9597 9.33691 13.6852 9.32834C13.8665 9.32625 13.9714 9.34443 13.9958 9.57756C14.2235 11.7435 16.0498 13.3491 18.2262 13.2735C19.4353 13.2317 20.6438 13.2317 21.8526 13.2386C22.1987 13.2405 22.2858 13.129 22.2743 12.7987C22.2445 11.944 22.2583 11.9463 23.0953 11.9422C23.7939 11.939 24.4924 11.9314 25.1909 11.9196C25.7484 11.9102 26.131 11.5828 26.1249 11.1304C26.1193 10.672 25.7409 10.3681 25.174 10.3741C24.3143 10.3833 23.4545 10.3877 22.5952 10.4132C22.3285 10.4211 22.2445 10.3346 22.2438 10.071C22.2418 9.21212 22.2257 8.35345 22.1956 7.49499C22.1851 7.21296 22.3 7.16471 22.5482 7.16387C23.4348 7.16095 24.3214 7.14298 25.2076 7.1177C25.6672 7.10475 25.9749 6.86221 26.0342 6.50227C26.1155 6.00925 25.7789 5.61233 25.2523 5.61149C24.3521 5.61024 23.4517 5.61546 22.5522 5.64053C22.2541 5.64889 22.1553 5.56157 22.1565 5.25677C22.1615 4.35848 22.1494 4.35284 21.2415 4.36224C20.1667 4.37331 19.0917 4.37812 18.0177 4.41384C15.854 4.48633 14.1711 6.07401 13.9856 8.20485C13.9689 8.39808 13.919 8.49251 13.7029 8.49731C12.9778 8.51256 12.2525 8.53659 11.5282 8.57691C11.2312 8.59341 11.1629 8.48854 11.1886 8.20338C11.5253 4.4786 13.8523 1.52447 17.3638 0.388651C17.7816 0.25328 18.2057 0.127101 18.6492 0.103286C18.7817 0.0961833 19.667 0.00196681 20.0343 0.00196681C20.3927 0.000713377 21.2515 0.0859468 21.3633 0.10057Z" fill="#050505"/>
<path d="M15.587 23.2079C15.587 22.2555 15.5893 21.3031 15.587 20.3507C15.587 20.1539 15.5622 19.9669 15.8586 19.9769C16.1145 19.9855 16.1657 20.1157 16.1615 20.3409C16.1502 20.9444 16.1546 21.5481 16.1573 22.1519C16.1573 22.2515 16.1074 22.3838 16.2409 22.4335C16.3662 22.4803 16.4346 22.3654 16.5018 22.2893C17.5087 21.151 19.6375 21.549 20.2667 23.28C20.3137 23.4095 20.2761 23.6265 20.4606 23.6341C20.6607 23.6424 20.6146 23.4283 20.6557 23.2967C21.1521 21.709 23.1592 21.132 24.4192 22.2139C24.5052 22.2879 24.5689 22.4335 24.7148 22.3652C24.8353 22.3088 24.7931 22.1771 24.7933 22.0758C24.7933 21.8565 24.894 21.7587 25.1161 21.7719C25.3425 21.7854 25.3619 21.9365 25.3617 22.109C25.3603 23.4369 25.3574 24.7645 25.3599 26.0923C25.3599 26.3053 25.2874 26.4144 25.0582 26.4202C24.829 26.4261 24.7895 26.3008 24.7964 26.1146C24.8002 26.0129 24.8382 25.8898 24.7093 25.8326C24.5804 25.7754 24.5113 25.8825 24.4361 25.9523C23.3554 26.955 21.2139 26.6496 20.6461 24.8077C20.6118 24.6964 20.6202 24.5411 20.4581 24.5468C20.3225 24.5514 20.3265 24.693 20.2981 24.792C19.7933 26.5489 17.5405 27.0691 16.4492 25.8677C16.3942 25.8073 16.3382 25.7396 16.248 25.7676C16.1277 25.8052 16.1534 25.9126 16.1552 26.0041C16.158 26.1487 16.2023 26.3074 16.0314 26.3943C15.7901 26.5172 15.5912 26.3929 15.5897 26.1056C15.5833 25.1399 15.587 24.1739 15.587 23.2079ZM16.121 24.0749C16.1179 25.129 16.9343 25.978 17.9508 25.9778C18.9673 25.9776 19.8257 25.1198 19.831 24.1049C19.8366 23.0986 18.9678 22.183 17.9978 22.1728C16.9516 22.1617 16.1239 23.0002 16.1206 24.0749H16.121ZM22.9587 22.2156C21.9386 22.2156 21.0982 23.0658 21.1032 24.0932C21.1086 25.1551 21.9597 25.9878 23.0366 25.9855C24.0442 25.9836 24.8332 25.1536 24.8278 24.1033C24.8207 23.0142 24.0312 22.2168 22.9583 22.2166L22.9587 22.2156Z" fill="#EC1819"/>
<path d="M33.7174 24.1321C33.1268 24.1321 32.536 24.1413 31.9456 24.1281C31.6695 24.1218 31.5905 24.2219 31.6383 24.4885C31.7637 25.1808 32.1443 25.6826 32.8057 25.8986C33.4838 26.12 34.1333 25.9894 34.6802 25.5058C34.8189 25.383 34.9309 25.2267 35.0391 25.0738C35.1659 24.8929 35.2919 24.923 35.4467 25.032C35.6071 25.144 35.5898 25.2514 35.4954 25.4033C35.0468 26.1257 34.3792 26.4825 33.5525 26.5121C32.2001 26.5606 31.3843 25.8854 31.082 24.6621C30.7269 23.2254 31.705 22.0202 32.7675 21.7253C34.1653 21.3369 35.6372 22.3311 35.7966 23.7686C35.8244 24.0193 35.7774 24.1429 35.4878 24.1344C34.8977 24.1172 34.3067 24.1293 33.7159 24.1293L33.7174 24.1321ZM33.4078 23.6353V23.6399C33.8776 23.6399 34.3478 23.6384 34.8173 23.6399C35.0638 23.6399 35.2194 23.5883 35.0972 23.2875C34.8333 22.6386 34.2141 22.2168 33.4924 22.2087C32.6428 22.1993 32.0967 22.5348 31.7842 23.2248C31.6509 23.5189 31.6952 23.6455 32.0374 23.6374C32.4946 23.6271 32.9515 23.6353 33.4078 23.6353Z" fill="#EC1819"/>
<path d="M14.8939 24.0852C14.8939 24.7295 14.8939 25.3737 14.8939 26.0179C14.8939 26.2059 14.9373 26.4123 14.6371 26.4073C14.3793 26.4029 14.32 26.2654 14.3507 26.0383C14.3641 25.9393 14.4054 25.8085 14.2686 25.7601C14.1614 25.7227 14.1015 25.8273 14.0403 25.8917C13.2602 26.6997 11.8411 26.6571 11.0502 26.0212C10.1077 25.2633 9.83692 23.9894 10.4041 22.9022C10.9205 21.9128 12.1409 21.4277 13.2341 21.781C13.546 21.8817 13.8065 22.0685 14.0451 22.2897C14.1161 22.3557 14.1596 22.5024 14.2958 22.4297C14.3952 22.3762 14.3405 22.2609 14.3522 22.1723C14.3703 22.0369 14.2826 21.8673 14.4733 21.7862C14.7031 21.6887 14.8899 21.8102 14.8911 22.0722C14.897 22.7432 14.8936 23.4142 14.8939 24.0852ZM12.5295 25.9972C13.556 26.0028 14.404 25.1912 14.413 24.1945C14.4226 23.1151 13.6321 22.2517 12.6734 22.1959C11.3947 22.1209 10.6485 23.2471 10.6531 24.0832C10.659 25.1312 11.5008 25.9917 12.5295 25.9972Z" fill="#050505"/>
<path d="M4.73097 24.5575C4.64323 25.5107 3.72133 26.5707 2.30766 26.5035C1.15868 26.4489 0.23344 25.6657 0.0514829 24.6636C-0.169539 23.4459 0.329118 22.4126 1.39287 21.8841C2.78271 21.1947 4.50995 22.1045 4.7316 23.6431C4.79866 23.9442 4.79844 24.2565 4.73097 24.5575ZM2.38621 22.2079C1.4102 22.2133 0.497705 23.1104 0.529459 24.1069C0.568733 25.3137 1.49795 26.0129 2.42799 25.9969C3.43554 25.9795 4.2814 25.1086 4.26636 24.0864C4.25257 23.0757 3.37851 22.2025 2.38621 22.2079Z" fill="#050505"/>
<path d="M36.0386 21.774C36.2498 21.7413 36.3215 21.8994 36.3959 22.0665C36.8095 22.9881 37.2249 23.9089 37.6422 24.8289C37.6806 24.9137 37.717 24.9998 37.7621 25.0796C37.8666 25.2655 37.9482 25.2352 38.0274 25.0558C38.3264 24.3789 38.6332 23.7056 38.9299 23.0279C39.0671 22.7145 39.1835 22.3924 39.3216 22.0799C39.3644 21.9817 39.4309 21.8956 39.515 21.8292C39.5745 21.7845 39.6462 21.7591 39.7205 21.7561C39.7949 21.7532 39.8684 21.773 39.9312 21.8129C40.0638 21.8986 39.9706 22.0346 39.9249 22.1384C39.0893 24.0396 38.253 25.9406 37.416 27.8415C37.3426 28.0087 37.2355 28.0997 37.0587 28.1192C36.7809 28.1497 36.7084 28.0371 36.8312 27.7586C37.0419 27.2803 37.254 26.8027 37.4675 26.3257C37.5545 26.1325 37.5674 25.9536 37.473 25.7491C36.9073 24.5243 36.3555 23.293 35.7926 22.0667C35.6662 21.7918 35.8141 21.7665 36.0386 21.774Z" fill="#EC1819"/>
<path d="M9.75296 22.0256C9.75422 21.825 9.66251 21.7809 9.48661 21.7694C9.18265 21.7485 9.21399 21.9458 9.219 22.139C9.2213 22.2284 9.25055 22.3366 9.13962 22.3855C9.03307 22.4325 8.96685 22.3471 8.89582 22.2892C8.8248 22.2313 8.75398 22.1657 8.67898 22.1095C7.37917 21.1346 5.44094 21.8513 5.07849 23.4398L5.07285 23.4553C5.07285 23.4553 5.06658 23.4781 5.06637 23.4783C5.03525 23.579 5.02167 23.7511 4.98887 23.9431C4.98762 24.24 4.96171 24.1485 4.98887 24.3887C5.01791 24.4764 5.03065 24.5963 5.05927 24.6858C5.48857 26.0756 6.91707 26.7518 8.26639 26.2037C8.51708 26.1017 8.73768 25.953 8.94199 25.7758C9.06065 25.673 9.21169 25.6233 9.22005 25.8458C9.24094 26.4115 9.14839 26.9549 8.6631 27.3274C7.83876 27.9599 6.5049 27.8162 5.80862 27.0349C5.75514 26.9749 5.71231 26.8985 5.64692 26.8573C5.49003 26.7583 5.2805 26.7362 5.15328 26.8335C4.98448 26.9626 5.19151 27.0986 5.2594 27.1993C5.86795 28.1055 6.78713 28.295 7.77797 28.1772C9.21273 28.0065 9.67734 27.2006 9.72455 26.2515C9.79454 24.846 9.7444 23.4346 9.75296 22.0256ZM7.36622 25.8926C6.29641 25.8861 5.53286 25.1213 5.5126 24.0883C5.49171 23.0091 6.53791 22.1214 7.52373 22.1908C8.48971 22.2587 9.26976 23.0498 9.26036 24.0883C9.25075 25.1378 8.45169 25.8984 7.36622 25.8926Z" fill="#050505"/>
<path d="M27.9378 26.0486C28.0132 25.979 28.0761 25.897 28.124 25.8062C28.1909 25.6806 28.2401 25.5462 28.2702 25.407C28.2702 25.3803 28.2723 25.354 28.2748 25.3322C28.3709 24.4941 27.8031 24.0903 27.1174 23.7694C26.8843 23.6604 26.6628 23.5212 26.4846 23.3353C26.2985 23.141 26.1648 22.9052 26.305 22.6273C26.4548 22.3303 26.6977 22.1531 27.0508 22.1815C27.2943 22.2011 27.5237 22.3035 27.7009 22.4717C27.8472 22.6069 27.984 22.6227 28.1056 22.4491C28.2192 22.2866 28.1735 22.1567 28.0193 22.0395C27.7118 21.804 27.3756 21.657 26.9831 21.6582C26.3027 21.6607 25.7762 22.1851 25.7581 22.8651C25.743 23.4324 26.0591 23.7736 26.4949 24.0425C26.7915 24.2255 27.1028 24.3851 27.3932 24.5762C27.6771 24.7623 27.8179 25.0373 27.7097 25.3746C27.5983 25.7214 27.3477 25.9335 26.9752 25.975C26.63 26.0137 26.3438 25.8819 26.0978 25.6498C25.9824 25.5403 25.8807 25.4421 25.7403 25.6274C25.5999 25.8127 25.5168 25.9347 25.8838 26.2057C26.5074 26.6653 27.3614 26.5817 27.9293 26.054L27.9378 26.0486Z" fill="#EC1819"/>
<path d="M30.633 26.0486C30.7084 25.979 30.7713 25.897 30.8191 25.8062C30.8862 25.6806 30.9354 25.5463 30.9654 25.407C30.9654 25.3803 30.9675 25.354 30.97 25.3322C31.0661 24.4941 30.4983 24.0903 29.8126 23.7694C29.5795 23.6604 29.3581 23.5212 29.1799 23.3353C28.9937 23.141 28.86 22.9052 29.0002 22.6273C29.15 22.3303 29.393 22.1531 29.746 22.1815C29.9895 22.2011 30.2189 22.3035 30.3961 22.4717C30.5423 22.6069 30.6792 22.6227 30.8008 22.4491C30.9144 22.2866 30.8687 22.1567 30.7145 22.0395C30.407 21.804 30.0708 21.657 29.6783 21.6582C28.9979 21.6607 28.4715 22.1851 28.4533 22.8651C28.4383 23.4324 28.7543 23.7736 29.1901 24.0425C29.4868 24.2255 29.7982 24.3851 30.0884 24.5762C30.3723 24.7623 30.5131 25.0373 30.4049 25.3746C30.2935 25.7214 30.0429 25.9335 29.6704 25.975C29.3253 26.0137 29.0391 25.8819 28.793 25.6498C28.6777 25.5403 28.5759 25.4421 28.4355 25.6274C28.2952 25.8127 28.2122 25.9347 28.5791 26.2057C29.2026 26.6653 30.0566 26.5817 30.6247 26.054L30.633 26.0486Z" fill="#EC1819"/>
</g>
<defs>
<clipPath id="clip0_1_124">
<rect width="40" height="28.2089" fill="white"/>
</clipPath>
</defs>
</svg>
